<?xml version="1.0" encoding="UTF-8" standalone="no"?>
<svg
   xmlns:dc="http://purl.org/dc/elements/1.1/"
   xmlns:cc="http://creativecommons.org/ns#"
   xmlns:rdf="http://www.w3.org/1999/02/22-rdf-syntax-ns#"
   xmlns:svg="http://www.w3.org/2000/svg"
   xmlns="http://www.w3.org/2000/svg"
   xmlns:sodipodi="http://sodipodi.sourceforge.net/DTD/sodipodi-0.dtd"
   xmlns:inkscape="http://www.inkscape.org/namespaces/inkscape"
   width="512"
   height="512"
   viewBox="0 0 135.46667 135.46667"
   version="1.1"
   id="svg8"
   inkscape:version="1.0beta2 (2b71d25, 2019-12-03)"
   sodipodi:docname="brewlet-filled-6.svg">
  <defs
     id="defs2" />
  <sodipodi:namedview
     units="px"
     id="base"
     pagecolor="#ffffff"
     bordercolor="#666666"
     borderopacity="1.0"
     inkscape:pageopacity="0.0"
     inkscape:pageshadow="2"
     inkscape:zoom="0.80181869"
     inkscape:cx="218.17427"
     inkscape:cy="285.12236"
     inkscape:document-units="mm"
     inkscape:current-layer="g869"
     inkscape:document-rotation="0"
     showgrid="false"
     fit-margin-top="0"
     fit-margin-left="0"
     fit-margin-right="0"
     fit-margin-bottom="0"
     inkscape:window-width="1440"
     inkscape:window-height="855"
     inkscape:window-x="0"
     inkscape:window-y="23"
     inkscape:window-maximized="1"
     inkscape:snap-global="true" />
  <metadata
     id="metadata5">
    <rdf:RDF>
      <cc:Work
         rdf:about="">
        <dc:format>image/svg+xml</dc:format>
        <dc:type
           rdf:resource="http://purl.org/dc/dcmitype/StillImage" />
        <dc:title></dc:title>
      </cc:Work>
    </rdf:RDF>
  </metadata>
  <g
     transform="translate(-12.695418,-18.019076)"
     inkscape:groupmode="layer"
     id="layer2"
     inkscape:label="Layer 2"
     style="display:inline">
    <g
       id="g869"
       transform="translate(3.8443746,0.29450206)">
      <path
         inkscape:connector-curvature="0"
         id="rect891"
         style="fill:#fbb040;fill-opacity:1;stroke:#000000;stroke-width:0;stroke-linecap:round;stroke-linejoin:round;stroke-miterlimit:4;stroke-dasharray:none"
         d="M 37.320092,67.132988 V 143.35501 H 104.76706 V 67.321648 c -1.09607,0.429065 -2.12708,0.906346 -2.86675,1.415843 -1.29517,0.892162 -2.078198,2.234925 -2.799773,3.504435 -0.701475,1.234159 -1.14211,2.575414 -1.443147,3.919368 -0.421076,1.879725 0.323861,4.233691 -0.491286,5.723128 -0.854006,1.56042 -3.24578,2.702769 -5.365057,3.001623 C 90.096014,85.1265 88.07658,84.750187 86.782133,83.78783 84.677956,82.223355 85.006148,79.285688 83.683688,77.20321 82.227948,74.910906 80.076238,73.234963 77.496571,72.183328 66.221085,67.586867 50.859236,70.708465 40.239886,67.9124 40.084924,67.8739 38.609787,67.476702 37.320092,67.132988 Z" />
      <path
         id="path884"
         style="display:inline;fill:none;fill-opacity:1;stroke:#000000;stroke-width:6.94794;stroke-linecap:round;stroke-linejoin:round;stroke-miterlimit:4;stroke-dasharray:none;stroke-opacity:1"
         d="m 32.178575,52.32485 c -6.3233,-0.407816 -10.059203,-4.075134 -9.764712,-11.381002 0.727262,-5.148632 4.284399,-7.708463 10.178426,-8.130481 4.755719,-15.9576 23.66711,-14.177673 23.657958,5.149305 7.359011,-10.576863 15.011213,-12.648806 23.10777,0 5.570502,-13.841004 14.250443,-17.82842 26.133793,-5.149305 l 5.50185,-1.35508 c 15.85352,4.845842 10.71652,17.049869 0.004,20.631432 m -78.819367,0.235138 c -1.615718,-0.506112 7.633894,2.391364 8.061722,2.523518 10.619342,3.280273 25.980346,-0.38149 37.255832,5.010956 2.579667,1.233711 4.731114,3.199503 6.186854,5.888767 1.322464,2.443061 0.994715,5.889452 3.098886,7.724857 1.294448,1.129106 3.314038,1.570742 5.019075,1.28867 2.11927,-0.350606 4.511208,-1.690754 5.365214,-3.521416 0.815147,-1.747362 0.07082,-4.509103 0.491884,-6.714374 0.301038,-1.576684 0.741401,-3.150441 1.44287,-4.598303 0.721582,-1.489368 1.50433,-3.064994 2.79949,-4.111643 2.53911,-2.051909 8.42475,-3.743262 9.09725,-3.726163"
         inkscape:connector-curvature="0"
         sodipodi:nodetypes="cccccccccsasaasaaac" />
      <path
         style="fill:none;stroke:#000000;stroke-width:9.92563;stroke-linecap:butt;stroke-linejoin:round;stroke-miterlimit:4;stroke-dasharray:none;stroke-opacity:1"
         d="m 37.320091,53.933818 v 89.421192 c 22.050224,6.38545 44.516858,6.61729 67.446969,0 v -21.94359 h 26.83617 V 65.496088 H 104.54495 V 121.7365 55.093238"
         id="path1414"
         inkscape:connector-curvature="0"
         sodipodi:nodetypes="ccccccccc" />
    </g>
  </g>
</svg>
