<?xml version="1.0" encoding="UTF-8" standalone="no"?>
<!DOCTYPE svg PUBLIC "-//W3C//DTD SVG 1.1//EN" "http://www.w3.org/Graphics/SVG/1.1/DTD/svg11.dtd">
<svg width="100%" height="100%" viewBox="0 0 16 16" version="1.1" xmlns="http://www.w3.org/2000/svg" xmlns:xlink="http://www.w3.org/1999/xlink" xml:space="preserve" xmlns:serif="http://www.serif.com/" style="fill-rule:evenodd;clip-rule:evenodd;stroke-linejoin:round;">
    <g transform="matrix(1,0,0,1,0,-99)">
        <g transform="matrix(1,0,0,1,0,99)">
            <rect id="brewlet-filled-3" x="0" y="0" width="16" height="16" style="fill:none;"/>
            <g id="brewlet-filled-31" serif:id="brewlet-filled-3">
                <g transform="matrix(0.03125,0,0,0.03125,-1.0454,-2.09345)">
                    <g id="Layer-2" serif:id="Layer 2">
                        <g id="g869">
                            <g id="rect891" transform="matrix(-1,0,0,1.63494,537.022,-333.211)">
                                <path d="M141.052,433.632L141.052,541.814L395.97,541.814L395.97,426.127C387.956,427.39 363.926,430.726 354.781,433.192C325.594,441.063 295.889,437.573 285.016,434.609C211.087,414.455 191.519,439.046 141.052,433.632Z" style="fill:rgb(251,176,64);fill-rule:nonzero;"/>
                            </g>
                            <g>
                                <path id="path1414" d="M395.97,458.878L497.398,458.878L497.398,247.544L395.131,247.544" style="fill:none;fill-rule:nonzero;stroke:black;stroke-width:32px;"/>
                                <path id="path14141" serif:id="path1414" d="M141.052,203.844L141.052,541.814C224.392,565.948 309.305,566.824 395.97,541.814L395.97,203.844" style="fill:none;fill-rule:nonzero;stroke:black;stroke-width:32px;"/>
                                <g transform="matrix(1.11165,0,0,1.41369,-0.190949,9.97712)">
                                    <ellipse cx="241.715" cy="138.87" rx="114.657" ry="22.81" style="fill:none;stroke:black;stroke-width:25.16px;stroke-linecap:round;stroke-miterlimit:1.5;"/>
                                </g>
                            </g>
                        </g>
                    </g>
                </g>
            </g>
        </g>
    </g>
</svg>
